<mxfile host="app.diagrams.net" modified="2023-08-07T23:13:46.105Z" agent="Mozilla/5.0 (Windows NT 10.0; Win64; x64) AppleWebKit/537.36 (KHTML, like Gecko) Chrome/115.0.0.0 Safari/537.36" etag="I3hqKQJzyOhdPUOiiwaM" version="21.6.6" type="device">
  <diagram id="C5RBs43oDa-KdzZeNtuy" name="Page-1">
    <mxGraphModel dx="1050" dy="613" grid="1" gridSize="10" guides="1" tooltips="1" connect="1" arrows="1" fold="1" page="1" pageScale="1" pageWidth="827" pageHeight="1169" math="0" shadow="0">
      <root>
        <mxCell id="WIyWlLk6GJQsqaUBKTNV-0" />
        <mxCell id="WIyWlLk6GJQsqaUBKTNV-1" parent="WIyWlLk6GJQsqaUBKTNV-0" />
        <mxCell id="v7dbJcyT28siehWmc8mI-6" value="Animes" style="swimlane;fontStyle=1;childLayout=stackLayout;horizontal=1;startSize=26;fillColor=none;horizontalStack=0;resizeParent=1;resizeParentMax=0;resizeLast=0;collapsible=1;marginBottom=0;whiteSpace=wrap;html=1;labelBackgroundColor=none;strokeColor=#DDA15E;fontColor=#000000;" parent="WIyWlLk6GJQsqaUBKTNV-1" vertex="1">
          <mxGeometry x="70" y="40" width="190" height="286" as="geometry" />
        </mxCell>
        <mxCell id="v7dbJcyT28siehWmc8mI-7" value="- idAnimes: int&lt;br&gt;" style="text;strokeColor=none;fillColor=none;align=left;verticalAlign=top;spacingLeft=4;spacingRight=4;overflow=hidden;rotatable=0;points=[[0,0.5],[1,0.5]];portConstraint=eastwest;whiteSpace=wrap;html=1;labelBackgroundColor=none;fontColor=#000000;" parent="v7dbJcyT28siehWmc8mI-6" vertex="1">
          <mxGeometry y="26" width="190" height="26" as="geometry" />
        </mxCell>
        <mxCell id="v7dbJcyT28siehWmc8mI-8" value="- title: String" style="text;strokeColor=none;fillColor=none;align=left;verticalAlign=top;spacingLeft=4;spacingRight=4;overflow=hidden;rotatable=0;points=[[0,0.5],[1,0.5]];portConstraint=eastwest;whiteSpace=wrap;html=1;labelBackgroundColor=none;fontColor=#000000;" parent="v7dbJcyT28siehWmc8mI-6" vertex="1">
          <mxGeometry y="52" width="190" height="26" as="geometry" />
        </mxCell>
        <mxCell id="v7dbJcyT28siehWmc8mI-12" value="- link: String" style="text;strokeColor=none;fillColor=none;align=left;verticalAlign=top;spacingLeft=4;spacingRight=4;overflow=hidden;rotatable=0;points=[[0,0.5],[1,0.5]];portConstraint=eastwest;whiteSpace=wrap;html=1;labelBackgroundColor=none;fontColor=#000000;" parent="v7dbJcyT28siehWmc8mI-6" vertex="1">
          <mxGeometry y="78" width="190" height="26" as="geometry" />
        </mxCell>
        <mxCell id="v7dbJcyT28siehWmc8mI-13" value="- releaseDate: int" style="text;strokeColor=none;fillColor=none;align=left;verticalAlign=top;spacingLeft=4;spacingRight=4;overflow=hidden;rotatable=0;points=[[0,0.5],[1,0.5]];portConstraint=eastwest;whiteSpace=wrap;html=1;labelBackgroundColor=none;fontColor=#000000;" parent="v7dbJcyT28siehWmc8mI-6" vertex="1">
          <mxGeometry y="104" width="190" height="26" as="geometry" />
        </mxCell>
        <mxCell id="v7dbJcyT28siehWmc8mI-9" value="- description: String" style="text;strokeColor=none;fillColor=none;align=left;verticalAlign=top;spacingLeft=4;spacingRight=4;overflow=hidden;rotatable=0;points=[[0,0.5],[1,0.5]];portConstraint=eastwest;whiteSpace=wrap;html=1;labelBackgroundColor=none;fontColor=#000000;" parent="v7dbJcyT28siehWmc8mI-6" vertex="1">
          <mxGeometry y="130" width="190" height="26" as="geometry" />
        </mxCell>
        <mxCell id="v7dbJcyT28siehWmc8mI-14" value="- studio: String" style="text;strokeColor=none;fillColor=none;align=left;verticalAlign=top;spacingLeft=4;spacingRight=4;overflow=hidden;rotatable=0;points=[[0,0.5],[1,0.5]];portConstraint=eastwest;whiteSpace=wrap;html=1;labelBackgroundColor=none;fontColor=#000000;" parent="v7dbJcyT28siehWmc8mI-6" vertex="1">
          <mxGeometry y="156" width="190" height="26" as="geometry" />
        </mxCell>
        <mxCell id="v7dbJcyT28siehWmc8mI-17" value="- creator: String" style="text;strokeColor=none;fillColor=none;align=left;verticalAlign=top;spacingLeft=4;spacingRight=4;overflow=hidden;rotatable=0;points=[[0,0.5],[1,0.5]];portConstraint=eastwest;whiteSpace=wrap;html=1;labelBackgroundColor=none;fontColor=#000000;" parent="v7dbJcyT28siehWmc8mI-6" vertex="1">
          <mxGeometry y="182" width="190" height="26" as="geometry" />
        </mxCell>
        <mxCell id="v7dbJcyT28siehWmc8mI-18" value="- typesAnimesId: TypesAnimes" style="text;strokeColor=none;fillColor=none;align=left;verticalAlign=top;spacingLeft=4;spacingRight=4;overflow=hidden;rotatable=0;points=[[0,0.5],[1,0.5]];portConstraint=eastwest;whiteSpace=wrap;html=1;labelBackgroundColor=none;fontColor=#000000;" parent="v7dbJcyT28siehWmc8mI-6" vertex="1">
          <mxGeometry y="208" width="190" height="26" as="geometry" />
        </mxCell>
        <mxCell id="v7dbJcyT28siehWmc8mI-28" value="- seriesId: Series" style="text;strokeColor=none;fillColor=none;align=left;verticalAlign=top;spacingLeft=4;spacingRight=4;overflow=hidden;rotatable=0;points=[[0,0.5],[1,0.5]];portConstraint=eastwest;whiteSpace=wrap;html=1;fontColor=#000000;labelBackgroundColor=none;" parent="v7dbJcyT28siehWmc8mI-6" vertex="1">
          <mxGeometry y="234" width="190" height="26" as="geometry" />
        </mxCell>
        <mxCell id="v7dbJcyT28siehWmc8mI-29" value="- moviesId : Movies" style="text;strokeColor=none;fillColor=none;align=left;verticalAlign=top;spacingLeft=4;spacingRight=4;overflow=hidden;rotatable=0;points=[[0,0.5],[1,0.5]];portConstraint=eastwest;whiteSpace=wrap;html=1;fontColor=#000000;labelBackgroundColor=none;" parent="v7dbJcyT28siehWmc8mI-6" vertex="1">
          <mxGeometry y="260" width="190" height="26" as="geometry" />
        </mxCell>
        <mxCell id="v7dbJcyT28siehWmc8mI-21" value="Serie" style="swimlane;fontStyle=0;childLayout=stackLayout;horizontal=1;startSize=26;fillColor=none;horizontalStack=0;resizeParent=1;resizeParentMax=0;resizeLast=0;collapsible=1;marginBottom=0;whiteSpace=wrap;html=1;strokeColor=#d79b00;labelBackgroundColor=none;fontColor=#000000;" parent="WIyWlLk6GJQsqaUBKTNV-1" vertex="1">
          <mxGeometry x="410" y="131" width="140" height="104" as="geometry" />
        </mxCell>
        <mxCell id="v7dbJcyT28siehWmc8mI-22" value="- idSeries: int" style="text;strokeColor=none;fillColor=none;align=left;verticalAlign=top;spacingLeft=4;spacingRight=4;overflow=hidden;rotatable=0;points=[[0,0.5],[1,0.5]];portConstraint=eastwest;whiteSpace=wrap;html=1;fontColor=#000000;labelBackgroundColor=none;" parent="v7dbJcyT28siehWmc8mI-21" vertex="1">
          <mxGeometry y="26" width="140" height="26" as="geometry" />
        </mxCell>
        <mxCell id="v7dbJcyT28siehWmc8mI-23" value="- numberEpisode: int" style="text;strokeColor=none;fillColor=none;align=left;verticalAlign=top;spacingLeft=4;spacingRight=4;overflow=hidden;rotatable=0;points=[[0,0.5],[1,0.5]];portConstraint=eastwest;whiteSpace=wrap;html=1;fontColor=#000000;labelBackgroundColor=none;" parent="v7dbJcyT28siehWmc8mI-21" vertex="1">
          <mxGeometry y="52" width="140" height="26" as="geometry" />
        </mxCell>
        <mxCell id="v7dbJcyT28siehWmc8mI-24" value="- numberSeasons: int" style="text;strokeColor=none;fillColor=none;align=left;verticalAlign=top;spacingLeft=4;spacingRight=4;overflow=hidden;rotatable=0;points=[[0,0.5],[1,0.5]];portConstraint=eastwest;whiteSpace=wrap;html=1;fontColor=#000000;labelBackgroundColor=none;" parent="v7dbJcyT28siehWmc8mI-21" vertex="1">
          <mxGeometry y="78" width="140" height="26" as="geometry" />
        </mxCell>
        <mxCell id="v7dbJcyT28siehWmc8mI-25" value="Movies" style="swimlane;fontStyle=0;childLayout=stackLayout;horizontal=1;startSize=26;fillColor=none;horizontalStack=0;resizeParent=1;resizeParentMax=0;resizeLast=0;collapsible=1;marginBottom=0;whiteSpace=wrap;html=1;strokeColor=#DDA15E;fontColor=#000000;labelBackgroundColor=none;" parent="WIyWlLk6GJQsqaUBKTNV-1" vertex="1">
          <mxGeometry x="575" y="248" width="140" height="78" as="geometry" />
        </mxCell>
        <mxCell id="v7dbJcyT28siehWmc8mI-26" value="- idMovies: int&amp;nbsp;" style="text;strokeColor=none;fillColor=none;align=left;verticalAlign=top;spacingLeft=4;spacingRight=4;overflow=hidden;rotatable=0;points=[[0,0.5],[1,0.5]];portConstraint=eastwest;whiteSpace=wrap;html=1;fontColor=#000000;labelBackgroundColor=none;" parent="v7dbJcyT28siehWmc8mI-25" vertex="1">
          <mxGeometry y="26" width="140" height="26" as="geometry" />
        </mxCell>
        <mxCell id="v7dbJcyT28siehWmc8mI-27" value="- durationMin: double" style="text;strokeColor=none;fillColor=none;align=left;verticalAlign=top;spacingLeft=4;spacingRight=4;overflow=hidden;rotatable=0;points=[[0,0.5],[1,0.5]];portConstraint=eastwest;whiteSpace=wrap;html=1;fontColor=#000000;labelBackgroundColor=none;" parent="v7dbJcyT28siehWmc8mI-25" vertex="1">
          <mxGeometry y="52" width="140" height="26" as="geometry" />
        </mxCell>
        <mxCell id="v7dbJcyT28siehWmc8mI-36" value="TypesAnimes" style="swimlane;fontStyle=0;childLayout=stackLayout;horizontal=1;startSize=26;fillColor=none;horizontalStack=0;resizeParent=1;resizeParentMax=0;resizeLast=0;collapsible=1;marginBottom=0;whiteSpace=wrap;html=1;strokeColor=#DDA15E;fontColor=#000000;labelBackgroundColor=none;" parent="WIyWlLk6GJQsqaUBKTNV-1" vertex="1">
          <mxGeometry x="280" y="26" width="140" height="78" as="geometry" />
        </mxCell>
        <mxCell id="v7dbJcyT28siehWmc8mI-37" value="- idTypesAnimes: int" style="text;strokeColor=none;fillColor=none;align=left;verticalAlign=top;spacingLeft=4;spacingRight=4;overflow=hidden;rotatable=0;points=[[0,0.5],[1,0.5]];portConstraint=eastwest;whiteSpace=wrap;html=1;fontColor=#000000;labelBackgroundColor=none;" parent="v7dbJcyT28siehWmc8mI-36" vertex="1">
          <mxGeometry y="26" width="140" height="26" as="geometry" />
        </mxCell>
        <mxCell id="v7dbJcyT28siehWmc8mI-38" value="- types: String" style="text;strokeColor=none;fillColor=none;align=left;verticalAlign=top;spacingLeft=4;spacingRight=4;overflow=hidden;rotatable=0;points=[[0,0.5],[1,0.5]];portConstraint=eastwest;whiteSpace=wrap;html=1;fontColor=#000000;labelBackgroundColor=none;" parent="v7dbJcyT28siehWmc8mI-36" vertex="1">
          <mxGeometry y="52" width="140" height="26" as="geometry" />
        </mxCell>
        <mxCell id="v7dbJcyT28siehWmc8mI-72" value="Favorites" style="swimlane;fontStyle=0;childLayout=stackLayout;horizontal=1;startSize=26;fillColor=none;horizontalStack=0;resizeParent=1;resizeParentMax=0;resizeLast=0;collapsible=1;marginBottom=0;whiteSpace=wrap;html=1;strokeColor=#DDA15E;fontColor=#000000;labelBackgroundColor=none;" parent="WIyWlLk6GJQsqaUBKTNV-1" vertex="1">
          <mxGeometry x="30" y="411" width="200" height="104" as="geometry" />
        </mxCell>
        <mxCell id="v7dbJcyT28siehWmc8mI-73" value="- idFavorites: int" style="text;strokeColor=none;fillColor=none;align=left;verticalAlign=top;spacingLeft=4;spacingRight=4;overflow=hidden;rotatable=0;points=[[0,0.5],[1,0.5]];portConstraint=eastwest;whiteSpace=wrap;html=1;fontColor=#000000;labelBackgroundColor=none;" parent="v7dbJcyT28siehWmc8mI-72" vertex="1">
          <mxGeometry y="26" width="200" height="26" as="geometry" />
        </mxCell>
        <mxCell id="v7dbJcyT28siehWmc8mI-74" value="- userId: User" style="text;strokeColor=none;fillColor=none;align=left;verticalAlign=top;spacingLeft=4;spacingRight=4;overflow=hidden;rotatable=0;points=[[0,0.5],[1,0.5]];portConstraint=eastwest;whiteSpace=wrap;html=1;fontColor=#000000;labelBackgroundColor=none;" parent="v7dbJcyT28siehWmc8mI-72" vertex="1">
          <mxGeometry y="52" width="200" height="26" as="geometry" />
        </mxCell>
        <mxCell id="v7dbJcyT28siehWmc8mI-75" value="- animesId: Animes" style="text;strokeColor=none;fillColor=none;align=left;verticalAlign=top;spacingLeft=4;spacingRight=4;overflow=hidden;rotatable=0;points=[[0,0.5],[1,0.5]];portConstraint=eastwest;whiteSpace=wrap;html=1;fontColor=#000000;labelBackgroundColor=none;" parent="v7dbJcyT28siehWmc8mI-72" vertex="1">
          <mxGeometry y="78" width="200" height="26" as="geometry" />
        </mxCell>
        <mxCell id="v7dbJcyT28siehWmc8mI-81" value="User" style="swimlane;fontStyle=0;childLayout=stackLayout;horizontal=1;startSize=26;fillColor=none;horizontalStack=0;resizeParent=1;resizeParentMax=0;resizeLast=0;collapsible=1;marginBottom=0;whiteSpace=wrap;html=1;strokeColor=#DDA15E;fontColor=#000000;labelBackgroundColor=none;" parent="WIyWlLk6GJQsqaUBKTNV-1" vertex="1">
          <mxGeometry x="330" y="520" width="140" height="130" as="geometry" />
        </mxCell>
        <mxCell id="v7dbJcyT28siehWmc8mI-82" value="- idUser: int" style="text;strokeColor=none;fillColor=none;align=left;verticalAlign=top;spacingLeft=4;spacingRight=4;overflow=hidden;rotatable=0;points=[[0,0.5],[1,0.5]];portConstraint=eastwest;whiteSpace=wrap;html=1;fontColor=#000000;labelBackgroundColor=none;" parent="v7dbJcyT28siehWmc8mI-81" vertex="1">
          <mxGeometry y="26" width="140" height="26" as="geometry" />
        </mxCell>
        <mxCell id="v7dbJcyT28siehWmc8mI-83" value="- fullName: String" style="text;strokeColor=none;fillColor=none;align=left;verticalAlign=top;spacingLeft=4;spacingRight=4;overflow=hidden;rotatable=0;points=[[0,0.5],[1,0.5]];portConstraint=eastwest;whiteSpace=wrap;html=1;fontColor=#000000;labelBackgroundColor=none;" parent="v7dbJcyT28siehWmc8mI-81" vertex="1">
          <mxGeometry y="52" width="140" height="26" as="geometry" />
        </mxCell>
        <mxCell id="v7dbJcyT28siehWmc8mI-84" value="- email: String" style="text;strokeColor=none;fillColor=none;align=left;verticalAlign=top;spacingLeft=4;spacingRight=4;overflow=hidden;rotatable=0;points=[[0,0.5],[1,0.5]];portConstraint=eastwest;whiteSpace=wrap;html=1;fontColor=#000000;labelBackgroundColor=none;" parent="v7dbJcyT28siehWmc8mI-81" vertex="1">
          <mxGeometry y="78" width="140" height="26" as="geometry" />
        </mxCell>
        <mxCell id="v7dbJcyT28siehWmc8mI-93" value="- password: String" style="text;strokeColor=none;fillColor=none;align=left;verticalAlign=top;spacingLeft=4;spacingRight=4;overflow=hidden;rotatable=0;points=[[0,0.5],[1,0.5]];portConstraint=eastwest;whiteSpace=wrap;html=1;fontColor=#000000;labelBackgroundColor=none;" parent="v7dbJcyT28siehWmc8mI-81" vertex="1">
          <mxGeometry y="104" width="140" height="26" as="geometry" />
        </mxCell>
        <mxCell id="v7dbJcyT28siehWmc8mI-89" value="Avaliation" style="swimlane;fontStyle=0;childLayout=stackLayout;horizontal=1;startSize=26;fillColor=none;horizontalStack=0;resizeParent=1;resizeParentMax=0;resizeLast=0;collapsible=1;marginBottom=0;whiteSpace=wrap;html=1;strokeColor=#DDA15E;fontColor=#000000;labelBackgroundColor=none;" parent="WIyWlLk6GJQsqaUBKTNV-1" vertex="1">
          <mxGeometry x="590" y="400" width="190" height="78" as="geometry" />
        </mxCell>
        <mxCell id="v7dbJcyT28siehWmc8mI-90" value="- idAvaliation: int" style="text;strokeColor=none;fillColor=none;align=left;verticalAlign=top;spacingLeft=4;spacingRight=4;overflow=hidden;rotatable=0;points=[[0,0.5],[1,0.5]];portConstraint=eastwest;whiteSpace=wrap;html=1;fontColor=#000000;labelBackgroundColor=none;" parent="v7dbJcyT28siehWmc8mI-89" vertex="1">
          <mxGeometry y="26" width="190" height="26" as="geometry" />
        </mxCell>
        <mxCell id="v7dbJcyT28siehWmc8mI-92" value="- satatus: String" style="text;strokeColor=none;fillColor=none;align=left;verticalAlign=top;spacingLeft=4;spacingRight=4;overflow=hidden;rotatable=0;points=[[0,0.5],[1,0.5]];portConstraint=eastwest;whiteSpace=wrap;html=1;fontColor=#000000;labelBackgroundColor=none;" parent="v7dbJcyT28siehWmc8mI-89" vertex="1">
          <mxGeometry y="52" width="190" height="26" as="geometry" />
        </mxCell>
        <mxCell id="tDFljrGv121AmTME6nz8-0" value="animes_has_avaliation" style="swimlane;fontStyle=0;childLayout=stackLayout;horizontal=1;startSize=20;fillColor=none;horizontalStack=0;resizeParent=1;resizeParentMax=0;resizeLast=0;collapsible=1;marginBottom=0;whiteSpace=wrap;html=1;" vertex="1" parent="WIyWlLk6GJQsqaUBKTNV-1">
          <mxGeometry x="325" y="350" width="150" height="98" as="geometry" />
        </mxCell>
        <mxCell id="v7dbJcyT28siehWmc8mI-99" value="- userId: User" style="text;strokeColor=none;fillColor=none;align=left;verticalAlign=top;spacingLeft=4;spacingRight=4;overflow=hidden;rotatable=0;points=[[0,0.5],[1,0.5]];portConstraint=eastwest;whiteSpace=wrap;html=1;fontColor=#000000;labelBackgroundColor=none;" parent="tDFljrGv121AmTME6nz8-0" vertex="1">
          <mxGeometry y="20" width="150" height="26" as="geometry" />
        </mxCell>
        <mxCell id="tDFljrGv121AmTME6nz8-4" value="- idAvaliation: Avaliation" style="text;strokeColor=none;fillColor=none;align=left;verticalAlign=top;spacingLeft=4;spacingRight=4;overflow=hidden;rotatable=0;points=[[0,0.5],[1,0.5]];portConstraint=eastwest;whiteSpace=wrap;html=1;fontColor=#000000;labelBackgroundColor=none;" vertex="1" parent="tDFljrGv121AmTME6nz8-0">
          <mxGeometry y="46" width="150" height="26" as="geometry" />
        </mxCell>
        <mxCell id="v7dbJcyT28siehWmc8mI-100" value="- animesId: Animes" style="text;strokeColor=none;fillColor=none;align=left;verticalAlign=top;spacingLeft=4;spacingRight=4;overflow=hidden;rotatable=0;points=[[0,0.5],[1,0.5]];portConstraint=eastwest;whiteSpace=wrap;html=1;fontColor=#000000;labelBackgroundColor=none;" parent="tDFljrGv121AmTME6nz8-0" vertex="1">
          <mxGeometry y="72" width="150" height="26" as="geometry" />
        </mxCell>
        <mxCell id="tDFljrGv121AmTME6nz8-22" value="" style="endArrow=none;html=1;edgeStyle=orthogonalEdgeStyle;rounded=0;exitX=0.5;exitY=0;exitDx=0;exitDy=0;entryX=0.464;entryY=1.085;entryDx=0;entryDy=0;entryPerimeter=0;" edge="1" parent="WIyWlLk6GJQsqaUBKTNV-1" source="v7dbJcyT28siehWmc8mI-81" target="v7dbJcyT28siehWmc8mI-100">
          <mxGeometry relative="1" as="geometry">
            <mxPoint x="460" y="520" as="sourcePoint" />
            <mxPoint x="620" y="520" as="targetPoint" />
            <Array as="points">
              <mxPoint x="400" y="460" />
              <mxPoint x="395" y="460" />
            </Array>
          </mxGeometry>
        </mxCell>
        <mxCell id="tDFljrGv121AmTME6nz8-26" value="" style="endArrow=none;html=1;edgeStyle=orthogonalEdgeStyle;rounded=0;exitX=-0.017;exitY=0.165;exitDx=0;exitDy=0;exitPerimeter=0;entryX=0.428;entryY=0.992;entryDx=0;entryDy=0;entryPerimeter=0;" edge="1" parent="WIyWlLk6GJQsqaUBKTNV-1" source="v7dbJcyT28siehWmc8mI-81" target="v7dbJcyT28siehWmc8mI-75">
          <mxGeometry relative="1" as="geometry">
            <mxPoint x="215" y="600" as="sourcePoint" />
            <mxPoint x="110" y="550" as="targetPoint" />
            <Array as="points">
              <mxPoint x="116" y="542" />
            </Array>
          </mxGeometry>
        </mxCell>
        <mxCell id="tDFljrGv121AmTME6nz8-27" value="" style="endArrow=none;html=1;edgeStyle=orthogonalEdgeStyle;rounded=0;exitX=0.45;exitY=-0.038;exitDx=0;exitDy=0;entryX=0.627;entryY=1.008;entryDx=0;entryDy=0;entryPerimeter=0;exitPerimeter=0;" edge="1" parent="WIyWlLk6GJQsqaUBKTNV-1" source="v7dbJcyT28siehWmc8mI-72" target="v7dbJcyT28siehWmc8mI-29">
          <mxGeometry relative="1" as="geometry">
            <mxPoint x="165" y="396" as="sourcePoint" />
            <mxPoint x="160" y="326" as="targetPoint" />
            <Array as="points">
              <mxPoint x="120" y="396" />
              <mxPoint x="165" y="396" />
              <mxPoint x="165" y="340" />
              <mxPoint x="189" y="340" />
            </Array>
          </mxGeometry>
        </mxCell>
        <mxCell id="tDFljrGv121AmTME6nz8-28" value="" style="endArrow=none;html=1;edgeStyle=orthogonalEdgeStyle;rounded=0;exitX=0;exitY=0.5;exitDx=0;exitDy=0;" edge="1" parent="WIyWlLk6GJQsqaUBKTNV-1" source="tDFljrGv121AmTME6nz8-4" target="v7dbJcyT28siehWmc8mI-29">
          <mxGeometry relative="1" as="geometry">
            <mxPoint x="265" y="434" as="sourcePoint" />
            <mxPoint x="260" y="364" as="targetPoint" />
            <Array as="points">
              <mxPoint x="265" y="409" />
              <mxPoint x="265" y="374" />
              <mxPoint x="260" y="374" />
              <mxPoint x="260" y="350" />
              <mxPoint x="230" y="350" />
            </Array>
          </mxGeometry>
        </mxCell>
        <mxCell id="tDFljrGv121AmTME6nz8-29" value="" style="endArrow=none;html=1;edgeStyle=orthogonalEdgeStyle;rounded=0;entryX=0.346;entryY=1.085;entryDx=0;entryDy=0;entryPerimeter=0;" edge="1" parent="WIyWlLk6GJQsqaUBKTNV-1" target="v7dbJcyT28siehWmc8mI-38">
          <mxGeometry relative="1" as="geometry">
            <mxPoint x="260" y="260" as="sourcePoint" />
            <mxPoint x="330" y="120" as="targetPoint" />
            <Array as="points">
              <mxPoint x="335" y="260" />
              <mxPoint x="335" y="130" />
              <mxPoint x="330" y="130" />
              <mxPoint x="330" y="106" />
            </Array>
          </mxGeometry>
        </mxCell>
        <mxCell id="tDFljrGv121AmTME6nz8-32" value="" style="endArrow=diamondThin;endFill=0;endSize=24;html=1;rounded=0;entryX=1;entryY=0.5;entryDx=0;entryDy=0;exitX=0;exitY=0.5;exitDx=0;exitDy=0;" edge="1" parent="WIyWlLk6GJQsqaUBKTNV-1" source="v7dbJcyT28siehWmc8mI-27" target="v7dbJcyT28siehWmc8mI-29">
          <mxGeometry width="160" relative="1" as="geometry">
            <mxPoint x="460" y="420" as="sourcePoint" />
            <mxPoint x="620" y="420" as="targetPoint" />
          </mxGeometry>
        </mxCell>
        <mxCell id="tDFljrGv121AmTME6nz8-33" value="" style="endArrow=diamondThin;endFill=0;endSize=24;html=1;rounded=0;entryX=1;entryY=0.5;entryDx=0;entryDy=0;exitX=0.486;exitY=1.123;exitDx=0;exitDy=0;exitPerimeter=0;" edge="1" parent="WIyWlLk6GJQsqaUBKTNV-1" source="v7dbJcyT28siehWmc8mI-24" target="v7dbJcyT28siehWmc8mI-28">
          <mxGeometry width="160" relative="1" as="geometry">
            <mxPoint x="585" y="323" as="sourcePoint" />
            <mxPoint x="270" y="323" as="targetPoint" />
            <Array as="points">
              <mxPoint x="480" y="287" />
            </Array>
          </mxGeometry>
        </mxCell>
        <mxCell id="tDFljrGv121AmTME6nz8-34" value="" style="endArrow=diamondThin;endFill=0;endSize=24;html=1;rounded=0;entryX=1;entryY=0.5;entryDx=0;entryDy=0;exitX=0;exitY=0.118;exitDx=0;exitDy=0;exitPerimeter=0;" edge="1" parent="WIyWlLk6GJQsqaUBKTNV-1" source="v7dbJcyT28siehWmc8mI-89" target="tDFljrGv121AmTME6nz8-4">
          <mxGeometry width="160" relative="1" as="geometry">
            <mxPoint x="585" y="323" as="sourcePoint" />
            <mxPoint x="270" y="323" as="targetPoint" />
          </mxGeometry>
        </mxCell>
      </root>
    </mxGraphModel>
  </diagram>
</mxfile>
